<?xml version="1.0" encoding="utf-8"?>
<!-- Generator: Adobe Illustrator 26.5.0, SVG Export Plug-In . SVG Version: 6.00 Build 0)  -->
<svg version="1.1" id="Capa_1" xmlns="http://www.w3.org/2000/svg" xmlns:xlink="http://www.w3.org/1999/xlink" x="0px" y="0px"
	 viewBox="0 0 16 16" style="enable-background:new 0 0 16 16;" xml:space="preserve">
<style type="text/css">
	.st0{fill-rule:evenodd;clip-rule:evenodd;fill:#FFFFFF;}
</style>
<g id="Page-1">
	<g id="Dribbble-Light-Preview" transform="translate(-261.000000, -6719.000000)">
		<g id="icons" transform="translate(56.000000, 160.000000)">
			<path id="arrow_x5F_double_x5F_circle-_x5B__x23_327_x5D_" class="st0" d="M219.4,6563c0,0.9-0.7,1.6-1.6,1.6
				c-0.9,0-1.6-0.7-1.6-1.6s0.7-1.6,1.6-1.6C218.7,6561.4,219.4,6562.1,219.4,6563 M214.7,6562.2h-7.3l0.3-0.3
				c0.3-0.3,0.3-0.8,0-1.1l0,0c-0.3-0.3-0.8-0.3-1.1,0l-1.1,1.1c-0.6,0.6-0.6,1.6,0,2.3l1.1,1.1c0.3,0.3,0.8,0.3,1.1,0
				c0.3-0.3,0.3-0.8,0-1.1l-0.3-0.3h7.3c0.4,1.6,2,2.7,3.8,2.3c1.2-0.3,2.1-1.2,2.4-2.3c0.5-2.1-1.1-4-3.1-4
				C216.3,6559.8,215.1,6560.6,214.7,6562.2 M206.6,6571c0-0.9,0.7-1.6,1.6-1.6c0.9,0,1.6,0.7,1.6,1.6c0,0.9-0.7,1.6-1.6,1.6
				C207.3,6572.6,206.6,6571.9,206.6,6571 M211.3,6571.8h7.3l-0.3,0.3c-0.3,0.3-0.3,0.8,0,1.1v0c0.3,0.3,0.8,0.3,1.1,0l1.1-1.1
				c0.6-0.6,0.6-1.6,0-2.3l-1.1-1.1c-0.3-0.3-0.8-0.3-1.1,0c-0.3,0.3-0.3,0.8,0,1.1l0.3,0.3h-7.3c-0.4-1.6-2-2.7-3.8-2.3
				c-1.2,0.3-2.1,1.2-2.4,2.3c-0.5,2.1,1.1,4,3.1,4C209.7,6574.2,210.9,6573.4,211.3,6571.8"/>
		</g>
	</g>
</g>
</svg>
