<?xml version="1.0" encoding="utf-8"?>
<!-- Generator: Adobe Illustrator 26.5.0, SVG Export Plug-In . SVG Version: 6.00 Build 0)  -->
<svg version="1.1" xmlns="http://www.w3.org/2000/svg" xmlns:xlink="http://www.w3.org/1999/xlink" x="0px" y="0px"
	 viewBox="0 0 16 16" style="enable-background:new 0 0 16 16;" xml:space="preserve">
<style type="text/css">
	.st0{display:none;}
	
		.st1{display:inline;fill:none;stroke:#000000;stroke-width:1.5;stroke-linecap:round;stroke-linejoin:round;stroke-miterlimit:133.3333;}
	.st2{display:inline;}
	.st3{fill:none;stroke:#FFFFFF;stroke-width:1.5;stroke-linecap:round;stroke-linejoin:round;stroke-miterlimit:133.3333;}
	
		.st4{display:inline;fill:none;stroke:#FFFFFF;stroke-width:1.5;stroke-linecap:round;stroke-linejoin:round;stroke-miterlimit:160;}
</style>
<g id="Capa_1" class="st0">
	<path class="st1" d="M4.5-0.4 M4.5-0.4 M13.4-2c-0.7-2.1-2.5-3.9-4.8-4.5C4.9-7.6,1-5.3,0-1.6"/>
</g>
<g id="Capa_2" class="st0">
	<g id="Arrow__x2F__Arrow_x5F_Circle_x5F_Left" class="st2">
		<path id="Vector" class="st3" d="M14.1,4.6c-0.2-0.4-0.5-0.8-0.8-1.1C12,1.9,10.1,1,8,1C5.9,1,4,1.9,2.7,3.4
			C2.4,3.8,2.1,4.2,1.9,4.6"/>
	</g>
	<g id="Arrow__x2F__Arrow_x5F_Circle_x5F_Left_00000145753181543216237060000017909278834702917794_" class="st2">
		<path id="Vector_00000157999639950875112360000003064881483507103656_" class="st3" d="M1.8,11.3c0.2,0.4,0.5,0.9,0.9,1.2
			C4,14.1,5.9,15,8,15c2.4,0,4.6-1.2,5.8-3.1c0.1-0.2,0.2-0.4,0.3-0.6"/>
	</g>
</g>
<g id="Capa_3" class="st0">
	<path class="st4" d="M1,8l3.4-2.5 M1,8l3.4,2.5 M1,8h14 M15,8l-3.4-2.5 M15,8l-3.4,2.5"/>
</g>
<g id="Capa_4">
	<path class="st3" d="M7.2,11.1L10.3,8 M10.3,8L7.2,4.9 M10.3,8H1 M2.2,11.9C3.4,13.8,5.6,15,8,15c3.9,0,7-3.1,7-7c0-3.9-3.1-7-7-7
		C5.6,1,3.4,2.2,2.2,4.1"/>
</g>
</svg>
