<?xml version="1.0" encoding="utf-8"?>
<!-- Generator: Adobe Illustrator 26.5.0, SVG Export Plug-In . SVG Version: 6.00 Build 0)  -->
<svg version="1.1" id="Capa_1" xmlns="http://www.w3.org/2000/svg" xmlns:xlink="http://www.w3.org/1999/xlink" x="0px" y="0px"
	 viewBox="0 0 64 64" style="enable-background:new 0 0 64 64;" xml:space="preserve">
<style type="text/css">
	.st0{fill-rule:evenodd;clip-rule:evenodd;fill:#FFFFFF;}
</style>
<g id="Page-1">
	<g id="about-white" transform="translate(42.666667, 42.666667)">
		<path id="Shape" class="st0" d="M-10.7-36.7c-14.4,0-26,11.6-26,26c0,14.4,11.6,26,26,26c14.4,0,26-11.6,26-26
			C15.3-25,3.7-36.7-10.7-36.7z M-10.7,10.1c-11.5,0-20.8-9.3-20.8-20.8s9.3-20.8,20.8-20.8c11.5,0,20.8,9.3,20.8,20.8
			S0.8,10.1-10.7,10.1z M-7.4-21.1c0,1.9-1.4,3.3-3.2,3.3c-1.9,0-3.3-1.4-3.3-3.3c0-1.8,1.4-3.2,3.3-3.2
			C-8.8-24.3-7.4-22.9-7.4-21.1z M-13.3-13.3h5.2V2.3h-5.2V-13.3z"/>
	</g>
</g>
</svg>
