<?xml version="1.0" encoding="utf-8"?>
<!-- Generator: Adobe Illustrator 26.5.0, SVG Export Plug-In . SVG Version: 6.00 Build 0)  -->
<svg version="1.1" id="Capa_1" xmlns="http://www.w3.org/2000/svg" xmlns:xlink="http://www.w3.org/1999/xlink" x="0px" y="0px"
	 viewBox="0 0 16 16" style="enable-background:new 0 0 16 16;" xml:space="preserve">
<style type="text/css">
	.st0{fill-rule:evenodd;clip-rule:evenodd;fill:#FFFFFF;}
</style>
<g id="Page-1">
	<g id="Dribbble-Light-Preview" transform="translate(-420.000000, -6805.000000)">
		<g id="icons" transform="translate(56.000000, 160.000000)">
			<path id="arrow_x5F_left_x5F_circle-_x5B__x23_303_x5D_" class="st0" d="M378.4,6653c0,0.9-0.7,1.6-1.6,1.6
				c-0.9,0-1.6-0.7-1.6-1.6c0-0.9,0.7-1.6,1.6-1.6C377.7,6651.4,378.4,6652.1,378.4,6653 M373.7,6652.2h-6.7l0.9-0.9l-1.1-1.1
				l-2.8,2.8l0,0l0,0l2.8,2.8l1.1-1.1l-0.9-0.9h6.7c0.4,1.6,1.6,2.4,3.1,2.4c1.8,0,3.2-1.4,3.2-3.2c0-1.8-1.4-3.2-3.2-3.2
				C375.3,6649.8,374.1,6650.6,373.7,6652.2"/>
		</g>
	</g>
</g>
</svg>
