<?xml version="1.0" encoding="utf-8"?>
<!-- Generator: Adobe Illustrator 26.5.0, SVG Export Plug-In . SVG Version: 6.00 Build 0)  -->
<svg version="1.1" id="Capa_1" xmlns="http://www.w3.org/2000/svg" xmlns:xlink="http://www.w3.org/1999/xlink" x="0px" y="0px"
	 viewBox="0 0 16 16" style="enable-background:new 0 0 16 16;" xml:space="preserve">
<style type="text/css">
	.st0{fill-rule:evenodd;clip-rule:evenodd;fill:#FFFFFF;}
</style>
<g id="Page-1">
	<g id="Dribbble-Light-Preview" transform="translate(-60.000000, -6845.000000)">
		<g id="icons" transform="translate(56.000000, 160.000000)">
			<path id="arrow_x5F_right_x5F_circle-_x5B__x23_302_x5D_" class="st0" d="M5.6,6693c0-0.9,0.7-1.6,1.6-1.6s1.6,0.7,1.6,1.6
				s-0.7,1.6-1.6,1.6S5.6,6693.9,5.6,6693 M10.3,6693.8h6.7l-0.9,0.9l1.1,1.1l2.8-2.8l0,0l0,0l-2.8-2.8l-1.1,1.1l0.9,0.9h-6.7
				c0-1.2-1.2-2.4-3.1-2.4c-1.8,0-3.2,1.4-3.2,3.2c0,1.8,1.4,3.2,3.2,3.2C8.7,6696.2,9.9,6695.4,10.3,6693.8"/>
		</g>
	</g>
</g>
</svg>
