<?xml version="1.0" encoding="utf-8"?>
<!-- Generator: Adobe Illustrator 26.5.0, SVG Export Plug-In . SVG Version: 6.00 Build 0)  -->
<svg version="1.1" id="Capa_1" xmlns="http://www.w3.org/2000/svg" xmlns:xlink="http://www.w3.org/1999/xlink" x="0px" y="0px"
	 viewBox="0 0 64 64" style="enable-background:new 0 0 64 64;" xml:space="preserve">
<style type="text/css">
	.st0{fill:#FFFFFF;}
</style>
<g>
	<path class="st0" d="M9.9,25.7H8.5c-1.4,0-2.5,1.2-2.5,2.6v7.5c0,1.4,1.1,2.4,2.5,2.4h1.4c2.3,0,3.6,3.3,2,4.9L11,44.2
		c-1,1-1,2.6,0,3.6l5.3,5.3c1,1,2.6,1,3.6,0l1.6-1.6c1.6-1.6,4.3-0.5,4.3,1.8v2.3c0,1.4,1.1,2.4,2.5,2.4h7.5c1.4,0,2.5-1,2.5-2.4
		v-2.3c0-2.2,2.7-3.4,4.3-1.8l1.6,1.6c1,1,2.6,1,3.6,0l5.3-5.3c1-1,1-2.6,0-3.6l-0.9-1c-1.6-1.6-0.3-4.9,2-4.9h1.4
		c1.4,0,2.5-1,2.5-2.4v-7.5c0-1.4-1.1-2.6-2.5-2.6h-1.4c-2.3,0-3.7-3.4-2.1-5l1-1c1-1,1-2.6,0-3.5L47.7,11c-1-1-2.6-1-3.6,0l-1,0.9
		c-1.6,1.6-4.9,0.3-4.9-2V8.6c0-1.4-1.1-2.6-2.5-2.6h-7.5c-1.4,0-2.5,1.2-2.5,2.6v1.3c0,2.3-3.3,3.6-4.9,2l-1-1c-1-1-2.6-1-3.6,0
		L11,16.2c-1,1-1,2.6,0,3.6l1,0.9C13.6,22.3,12.2,25.7,9.9,25.7z M32.1,22c5.6,0,10.1,4.5,10.1,10.1s-4.5,10.1-10.1,10.1
		S22,37.7,22,32.1C22,26.5,26.5,22,32.1,22z"/>
</g>
</svg>
