<?xml version="1.0" encoding="utf-8"?>
<!-- Generator: Adobe Illustrator 26.5.0, SVG Export Plug-In . SVG Version: 6.00 Build 0)  -->
<svg version="1.1" xmlns="http://www.w3.org/2000/svg" xmlns:xlink="http://www.w3.org/1999/xlink" x="0px" y="0px"
	 viewBox="0 0 16 16" style="enable-background:new 0 0 16 16;" xml:space="preserve">
<style type="text/css">
	.st0{display:none;}
	.st1{display:inline;}
	.st2{display:inline;fill:#AF2020;}
	.st3{fill:none;stroke:#FFFFFF;stroke-width:1.25;stroke-linecap:round;stroke-linejoin:round;stroke-miterlimit:133.3333;}
	.st4{fill:#FFFFFF;stroke:#FFFFFF;stroke-width:0.5;stroke-miterlimit:10;}
</style>
<g id="Capa_2" class="st0">
	<rect class="st1" width="16" height="16"/>
</g>
<g id="Capa_1" class="st0">
	<path class="st2" d="M13,2.9c-1.3-1.3-3.5-1.3-4.8,0L6.7,4.5l0.8,0.8L9,3.7c0.8-0.8,2.3-0.9,3.2,0c0.9,0.9,0.8,2.3,0,3.2l-1.5,1.5
		l0.8,0.8L13,7.7C14.3,6.4,14.3,4.3,13,2.9L13,2.9z M7,12.2c-0.8,0.8-2.3,0.9-3.2,0c-0.9-0.9-0.8-2.3,0-3.2l1.5-1.5L4.5,6.7L3,8.2
		C1.6,9.5,1.6,11.6,3,13s3.5,1.3,4.8,0l1.5-1.5l-0.8-0.8L7,12.2z M4,3.2c0,0-0.1,0-0.2,0L3.2,3.8c0,0,0,0.1,0,0.2l8.7,8.7
		c0,0,0.1,0,0.2,0l0.6-0.6c0,0,0-0.1,0-0.2L4,3.2z"/>
</g>
<g id="Capa_3">
	<path class="st3" d="M7.9,2.7H5.4c-1,0-1.5,0-1.9,0.2C3.1,3,2.9,3.3,2.7,3.6C2.5,4,2.5,4.5,2.5,5.5v5c0,1,0,1.5,0.2,1.9
		c0.2,0.3,0.4,0.6,0.8,0.8c0.4,0.2,0.9,0.2,1.9,0.2h5c1,0,1.5,0,1.9-0.2c0.3-0.2,0.6-0.4,0.8-0.8c0.2-0.4,0.2-0.9,0.2-1.9V8"/>
	<path class="st3" d="M5,10.8h1c0.3,0,0.4,0,0.6,0c0.1,0,0.2-0.1,0.3-0.1c0.1-0.1,0.2-0.2,0.4-0.4l5.7-5.7c0.5-0.5,0.5-1.3,0-1.8
		c-0.5-0.5-1.3-0.5-1.8,0L5.6,8.4C5.4,8.6,5.3,8.7,5.2,8.8C5.2,9,5.1,9.1,5.1,9.2c0,0.1,0,0.3,0,0.6V10.8z"/>
</g>
<g id="Capa_4" class="st0">
	<g class="st1">
		<g>
			<g>
				<path class="st4" d="M4.7,13.2c-0.8,0-1.7-0.5-1.7-1.5V4.3c0-0.9,0.6-1.5,1.4-1.5h5L8.3,3.9C8.1,4,8.1,4.2,8.3,4.3
					c0.1,0.1,0.3,0.1,0.5,0c0,0,0,0,0,0l1.6-1.6c0.1-0.1,0.1-0.3,0-0.5L8.7,0.6c-0.1-0.1-0.3-0.1-0.5,0c-0.1,0.1-0.1,0.3,0,0.5
					l1.1,1.1h-5C3.2,2.1,2.3,3,2.3,4.3v7.4c0,1.2,1,2.2,2.4,2.2c0.2,0,0.3-0.1,0.3-0.3C5,13.4,4.8,13.2,4.7,13.2z"/>
				<path class="st4" d="M11.7,2.1c-0.2,0-0.3,0.1-0.3,0.3c0,0.2,0.1,0.3,0.3,0.3c0.9,0,1.4,0.5,1.4,1.4v7.4c0,0.8-0.4,1.6-1.4,1.6
					H7.3l1.1-1.1c0.1-0.1,0.1-0.3,0-0.5c-0.1-0.1-0.3-0.1-0.5,0l-1.6,1.6c-0.1,0.1-0.1,0.3,0,0.5l1.6,1.6c0.1,0.1,0.3,0.1,0.5,0
					c0.1-0.1,0.1-0.3,0-0.5l-1.1-1.1h4.3c1.2,0,2.1-0.9,2.1-2.3V4.2C13.7,2.9,12.9,2.1,11.7,2.1z"/>
			</g>
		</g>
	</g>
</g>
</svg>
