<?xml version="1.0" encoding="utf-8"?>
<!-- Generator: Adobe Illustrator 26.5.0, SVG Export Plug-In . SVG Version: 6.00 Build 0)  -->
<svg version="1.1" id="Capa_1" xmlns="http://www.w3.org/2000/svg" xmlns:xlink="http://www.w3.org/1999/xlink" x="0px" y="0px"
	 viewBox="0 0 64 128" style="enable-background:new 0 0 64 128;" xml:space="preserve">
<style type="text/css">
	.st0{fill:none;stroke:#FFFFFF;stroke-width:5;stroke-linecap:round;stroke-linejoin:round;stroke-miterlimit:133.3333;}
	.st1{fill-rule:evenodd;clip-rule:evenodd;fill:#FFFFFF;}
</style>
<path class="st0" d="M52.2,62.7c4.2,1.8,6.8,4.1,6.8,6.7c0,5.6-12.1,10.1-27,10.1S5,75,5,69.4c0-2.6,2.5-4.9,6.8-6.7"/>
<path class="st1" d="M29.2,67.7l2.8-2.6L29.2,67.7z M34.8,67.7L34.8,67.7L34.8,67.7l0.2-0.3l0.6-0.7c3.2-3.6,6.2-7.5,9-11.4
	c2.5-3.5,5-7.4,6.9-11.3c1.9-3.8,3.4-8,3.4-11.9C55.1,18.4,45,7.3,32,7.3S8.9,18.3,8.9,32.1c0,3.9,1.5,8.1,3.4,11.9
	c1.9,3.9,4.5,7.8,6.9,11.3c3,4.2,6.3,8.2,9.7,12.1l0.2,0.2l0,0.1l0,0c1.4,1.6,3.9,1.7,5.4,0.2C34.7,67.9,34.8,67.8,34.8,67.7
	L34.8,67.7z M32,65.1l2.8,2.6L32,65.1z M32,22.7c-4.3,0-7.7,3.5-7.7,7.7s3.5,7.7,7.7,7.7s7.7-3.5,7.7-7.7S36.3,22.7,32,22.7z"/>
</svg>
