<?xml version="1.0" encoding="utf-8"?>
<svg width="64px" height="64px" viewBox="0 0 64 64" id="_24x24_On_Light_Notification-Alert" data-name="24x24/On Light/Notification-Alert" xmlns="http://www.w3.org/2000/svg" xmlns:bx="https://boxy-svg.com"><defs><bx:export><bx:file format="svg" path="Sin título.svg"/></bx:export></defs><rect id="view-box" width="24" height="24" fill="none"/><path id="Shape" d="M 21.96 52.608 L 21.96 51.159 L 11.088 51.159 C 7.488 51.155 4.57 48.236 4.565 44.635 L 4.565 43.528 C 4.553 40.714 6.146 38.139 8.667 36.892 C 9.792 36.33 10.544 35.225 10.654 33.973 L 11.947 19.736 C 12.989 8.265 24.363 0.69 35.349 4.15 C 34.554 5.387 33.936 6.728 33.508 8.133 C 32.342 7.824 31.141 7.669 29.933 7.67 C 22.833 7.636 16.897 13.062 16.292 20.137 L 15.002 34.366 C 14.758 37.121 13.099 39.55 10.622 40.779 C 9.574 41.295 8.912 42.362 8.915 43.53 L 8.915 44.638 C 8.917 45.838 9.889 46.808 11.088 46.81 L 48.779 46.81 C 49.979 46.808 50.951 45.836 50.953 44.635 L 50.953 43.528 C 50.958 42.362 50.298 41.296 49.254 40.779 C 46.774 39.553 45.11 37.122 44.864 34.366 L 44.284 28.045 C 45.722 28.467 47.212 28.682 48.709 28.686 L 49.19 33.969 C 49.309 35.217 50.06 36.317 51.179 36.883 C 53.703 38.131 55.298 40.705 55.29 43.522 L 55.29 44.63 C 55.287 48.231 52.369 51.15 48.767 51.153 L 37.907 51.153 L 37.907 52.608 C 37.907 58.745 31.262 62.581 25.947 59.513 C 23.48 58.089 21.96 55.457 21.96 52.608 Z M 26.31 52.608 C 26.31 55.398 29.33 57.142 31.746 55.746 C 32.867 55.1 33.558 53.903 33.558 52.608 L 33.558 51.159 L 26.31 51.159 L 26.31 52.608 Z M 48.19 22.874 C 46.61 22.782 45.074 22.321 43.705 21.528 L 43.577 20.137 C 43.268 16.548 41.55 13.228 38.8 10.902 C 39.077 9.419 39.68 8.015 40.567 6.794 C 44.764 9.851 47.438 14.567 47.909 19.736 L 48.199 22.871 L 48.19 22.874 Z" style="fill: rgb(255, 255, 255);"/><path id="Shape-2" data-name="Shape" d="M 48.779 22.89 C 40.967 22.89 36.085 14.434 39.99 7.67 C 43.896 0.905 53.661 0.905 57.567 7.67 C 58.458 9.212 58.926 10.962 58.926 12.744 C 58.926 18.348 54.383 22.89 48.779 22.89 Z" fill="#ff6359" style=""/></svg>